<?xml version="1.0" encoding="UTF-8" standalone="no"?>
<!-- Created with Inkscape (http://www.inkscape.org/) -->

<svg
   xmlns:ns0="http://www.iki.fi/pav/software/textext/"
   xmlns:dc="http://purl.org/dc/elements/1.1/"
   xmlns:cc="http://creativecommons.org/ns#"
   xmlns:rdf="http://www.w3.org/1999/02/22-rdf-syntax-ns#"
   xmlns:svg="http://www.w3.org/2000/svg"
   xmlns="http://www.w3.org/2000/svg"
   xmlns:sodipodi="http://sodipodi.sourceforge.net/DTD/sodipodi-0.dtd"
   xmlns:inkscape="http://www.inkscape.org/namespaces/inkscape"
   width="210mm"
   height="297mm"
   viewBox="0 0 210 297"
   version="1.1"
   id="svg8"
   inkscape:version="0.92.2 (5c3e80d, 2017-08-06)"
   sodipodi:docname="circuito.svg">
  <sodipodi:namedview
     id="base"
     pagecolor="#ffffff"
     bordercolor="#666666"
     borderopacity="1.0"
     inkscape:pageopacity="0.0"
     inkscape:pageshadow="2"
     inkscape:zoom="1.4"
     inkscape:cx="376.85881"
     inkscape:cy="961.52995"
     inkscape:document-units="mm"
     inkscape:current-layer="svg8"
     showgrid="false"
     inkscape:window-width="1920"
     inkscape:window-height="1016"
     inkscape:window-x="0"
     inkscape:window-y="27"
     inkscape:window-maximized="1" />
  <defs
     id="defs2">
    <marker
       id="arrowCurrentStart"
       orient="auto"
       refX="0.0"
       refY="0.0"
       style="overflow:visible"
       inkscape:stockid="arrowCurrentStart">
      <path
         d="M 0.0,0.0 L 5.0,-5.0 L -12.5,0.0 L 5.0,5.0 L 0.0,0.0 z "
         style="stroke-width:1.0;stroke:#FF0000;fill:#FF0000;fill-rule:evenodd"
         transform="scale(0.25) rotate(0) translate(7.2925,0)"
         id="path1532" />
    </marker>
    <marker
       id="arrowCurrentEnd"
       orient="auto"
       refX="0.0"
       refY="0.0"
       style="overflow:visible"
       inkscape:stockid="arrowCurrentEnd">
      <path
         d="M 0.0,0.0 L 5.0,-5.0 L -12.5,0.0 L 5.0,5.0 L 0.0,0.0 z "
         style="stroke-width:1.0;stroke:#FF0000;fill:#FF0000;fill-rule:evenodd"
         transform="scale(0.25) rotate(180) translate(7.2925,0)"
         id="path1535" />
    </marker>
    <marker
       inkscape:stockid="arrowVoltageStart"
       style="overflow:visible"
       refY="0.0"
       refX="0.0"
       orient="auto"
       id="arrowVoltageStart">
      <path
         id="path1630"
         transform="scale(0.25) rotate(0) translate(7.2925,0)"
         style="stroke-width:1.0;stroke:#217B21;fill:#217B21;fill-rule:evenodd"
         d="M 0.0,0.0 L 5.0,-5.0 L -12.5,0.0 L 5.0,5.0 L 0.0,0.0 z " />
    </marker>
    <marker
       inkscape:stockid="arrowVoltageEnd"
       style="overflow:visible"
       refY="0.0"
       refX="0.0"
       orient="auto"
       id="arrowVoltageEnd">
      <path
         id="path1633"
         transform="scale(0.25) rotate(180) translate(7.2925,0)"
         style="stroke-width:1.0;stroke:#217B21;fill:#217B21;fill-rule:evenodd"
         d="M 0.0,0.0 L 5.0,-5.0 L -12.5,0.0 L 5.0,5.0 L 0.0,0.0 z " />
    </marker>
  </defs>
  <metadata
     id="metadata5">
    <rdf:RDF>
      <cc:Work
         rdf:about="">
        <dc:format>image/svg+xml</dc:format>
        <dc:type
           rdf:resource="http://purl.org/dc/dcmitype/StillImage" />
        <dc:title />
      </cc:Work>
    </rdf:RDF>
  </metadata>
  <g
     id="layer1"
     inkscape:groupmode="layer"
     inkscape:label="Layer 1" />
  <g
     id="g1396"
     inkscape:label="Resistor"
     transform="rotate(90,104.86737,81.67402)">
    <g
       id="g1391">
      <path
         id="path1389"
         inkscape:label="none"
         style="fill:none;stroke:#000000;stroke-width:1;stroke-linecap:round;stroke-linejoin:round;stroke-dasharray:none"
         d="m 50,80 h 15.5 l 2,3 3,-6 3,6 3,-6 3,6 3,-6 2,3 H 100 v 50"
         inkscape:connector-curvature="0" />
    </g>
    <g
       transform="matrix(0,-0.739645,-0.739645,0,563.07784,240.95115)"
       ns0:preamble="/home/newtonis/.config/inkscape/extensions/textextLib/CircuitSymbolsLatexPreamble.tex"
       ns0:text=" $R$"
       word-spacing="normal"
       letter-spacing="normal"
       font-size-adjust="none"
       font-stretch="normal"
       font-weight="normal"
       font-variant="normal"
       font-style="normal"
       stroke-miterlimit="10.433"
       xml:space="preserve"
       id="content"
       style="font-style:normal;font-variant:normal;font-weight:normal;font-stretch:normal;letter-spacing:normal;word-spacing:normal;text-anchor:start;fill:none;fill-opacity:1;fill-rule:evenodd;stroke:#000000;stroke-linecap:butt;stroke-linejoin:miter;stroke-miterlimit:10.43299961;stroke-dasharray:none;stroke-dashoffset:0;stroke-opacity:1"><path
         id="path1393"
         style="fill:#000000;stroke-width:0"
         d="m 228.61,660.61 0.09,0.02 0.1,0.03 0.09,0.03 0.1,0.03 0.1,0.03 0.09,0.03 0.1,0.04 0.1,0.04 0.09,0.05 0.09,0.04 0.09,0.05 0.09,0.05 0.09,0.05 0.09,0.06 0.08,0.06 0.08,0.06 0.08,0.06 0.07,0.06 0.08,0.07 0.06,0.07 0.07,0.07 0.06,0.07 0.05,0.08 0.05,0.08 0.05,0.08 0.03,0.08 0.04,0.08 0.03,0.09 0.02,0.09 0.02,0.09 0.01,0.09 v 0.09 c 0,0.85 -0.9,1.49 -2.2,1.49 h -2.84 c -0.2,0 -0.29,0 -0.29,-0.2 0,-0.11 0.09,-0.11 0.28,-0.11 0.01,0 0.21,0 0.37,-0.02 0.18,-0.02 0.27,-0.03 0.27,-0.16 0,-0.04 -0.01,-0.07 -0.04,-0.19 l -1.33,-5.33 c -0.1,-0.39 -0.12,-0.47 -0.91,-0.47 -0.18,0 -0.27,0 -0.27,-0.2 0,-0.11 0.12,-0.11 0.14,-0.11 0.28,0 0.98,0.04 1.26,0.04 0.28,0 0.98,-0.04 1.26,-0.04 0.08,0 0.2,0 0.2,0.2 0,0.11 -0.09,0.11 -0.28,0.11 -0.37,0 -0.65,0 -0.65,0.18 0,0.06 0.02,0.11 0.03,0.17 l 0.66,2.63 h 1.19 l -0.01,0.22 h -1.12 l 0.65,2.59 c 0.06,0.24 0.09,0.34 0.28,0.37 0.09,0.01 0.41,0.01 0.61,0.01 0.71,0 1.81,0 1.81,-0.98 0,-0.34 -0.16,-1.02 -0.55,-1.41 -0.25,-0.26 -0.78,-0.58 -1.68,-0.58 l 0.01,-0.22 c 0.91,0 1.09,-0.55 1.09,-0.9 0,-0.15 -0.08,-0.46 -0.14,-0.69 -0.07,-0.27 -0.16,-0.64 -0.16,-0.84 0,-1.07 1.19,-1.07 1.32,-1.07 0.85,0 1.2,1 1.2,1.14 0,0.12 -0.11,0.12 -0.12,0.12 -0.09,0 -0.11,-0.07 -0.13,-0.14 -0.25,-0.74 -0.68,-0.91 -0.91,-0.91 -0.32,0 -0.4,0.22 -0.4,0.61 0,0.31 0.06,0.82 0.11,1.13 0.01,0.14 0.03,0.33 0.03,0.47 0,0.77 -0.66,1.07 -0.93,1.17 z"
         inkscape:connector-curvature="0" /></g>  </g>
  <g
     transform="translate(-13.45861,-23.19335)"
     inkscape:label="Capacitor"
     id="g1430">
    <g
       inkscape:label="Capacitor"
       id="g1424">
      <path
         inkscape:connector-curvature="0"
         d="M 70,50 H 93"
         style="fill:none;stroke:#000000;stroke-width:1;stroke-linecap:round;stroke-linejoin:round;stroke-dasharray:none"
         inkscape:label="none"
         id="path1416" />
      <path
         inkscape:connector-curvature="0"
         d="M 120,50 H 97"
         style="fill:none;stroke:#000000;stroke-width:1;stroke-linecap:round;stroke-linejoin:round;stroke-dasharray:none"
         inkscape:label="none"
         id="path1418" />
      <path
         inkscape:connector-curvature="0"
         d="M 93,57 V 43"
         style="fill:none;stroke:#000000;stroke-width:1;stroke-linecap:round;stroke-linejoin:round;stroke-dasharray:none"
         inkscape:label="none"
         id="path1420" />
      <path
         inkscape:connector-curvature="0"
         d="M 97,57 V 43"
         style="fill:none;stroke:#000000;stroke-width:1;stroke-linecap:round;stroke-linejoin:round;stroke-dasharray:none"
         inkscape:label="none"
         id="path1422" />
    </g>
    <g
       style="font-style:normal;font-variant:normal;font-weight:normal;font-stretch:normal;letter-spacing:normal;word-spacing:normal;text-anchor:start;fill:none;fill-opacity:1;fill-rule:evenodd;stroke:#000000;stroke-linecap:butt;stroke-linejoin:miter;stroke-miterlimit:10.43299961;stroke-dasharray:none;stroke-dashoffset:0;stroke-opacity:1"
       id="g1428"
       xml:space="preserve"
       stroke-miterlimit="10.433"
       font-style="normal"
       font-variant="normal"
       font-weight="normal"
       font-stretch="normal"
       font-size-adjust="none"
       letter-spacing="normal"
       word-spacing="normal"
       ns0:text=" $C$"
       ns0:preamble="/home/newtonis/.config/inkscape/extensions/textextLib/CircuitSymbolsLatexPreamble.tex"
       transform="matrix(0.739645,0,0,-0.739645,-73.247048,524.62823)"><path
         inkscape:connector-curvature="0"
         d="m 231.01,664.14 v 0 0.01 0 0 0.01 0 0 0.01 0 l -0.01,0.01 v 0 0 0.01 0 l -0.01,0.01 v 0 0 l -0.01,0.01 v 0 0 l -0.01,0.01 v 0 h -0.01 v 0.01 h -0.01 v 0 h -0.01 v 0 0 h -0.01 v 0 0.01 h -0.01 v 0 0 h -0.01 v 0 0 h -0.01 c -0.03,0 -0.04,-0.01 -0.15,-0.12 l -0.7,-0.77 c -0.09,0.14 -0.54,0.89 -1.65,0.89 -2.23,0 -4.47,-2.2 -4.47,-4.5 0,-1.64 1.18,-2.72 2.7,-2.72 0.87,0 1.63,0.39 2.16,0.85 0.92,0.81 1.09,1.72 1.09,1.75 0,0.1 -0.1,0.1 -0.12,0.1 -0.06,0 -0.11,-0.02 -0.13,-0.1 -0.09,-0.29 -0.31,-0.99 -1,-1.57 -0.69,-0.56 -1.32,-0.73 -1.84,-0.73 -0.89,0 -1.95,0.52 -1.95,2.07 0,0.57 0.21,2.18 1.2,3.34 0.61,0.7 1.55,1.2 2.44,1.2 1.01,0 1.6,-0.77 1.6,-1.92 0,-0.39 -0.03,-0.4 -0.03,-0.5 0,-0.1 0.11,-0.1 0.15,-0.1 0.13,0 0.13,0.02 0.18,0.2 z"
         style="fill:#000000;stroke-width:0"
         id="path1426" /></g>  </g>
  <g
     id="g1496"
     inkscape:label="Source"
     transform="rotate(-90,81.67402,75.13263)">
    <g
       id="g1484"
       inkscape:label="Source">
      <path
         id="path1466"
         inkscape:label="none"
         style="fill:none;stroke:#000000;stroke-width:1;stroke-linecap:round;stroke-linejoin:round;stroke-dasharray:none"
         d="M 80,50 H 98"
         inkscape:connector-curvature="0" />
      <path
         id="path1468"
         inkscape:label="none"
         style="fill:none;stroke:#000000;stroke-width:1;stroke-linecap:round;stroke-linejoin:round;stroke-dasharray:none"
         d="M 130,50 H 112"
         inkscape:connector-curvature="0" />
      <circle
         id="path1470"
         inkscape:label="circle"
         style="fill:none;stroke:#000000;stroke-width:1;stroke-linecap:round;stroke-linejoin:round;stroke-dasharray:none"
         cx="105"
         cy="50"
         r="7" />
      <g
         id="g1476">
        <path
           id="path1472"
           inkscape:label="arc"
           sodipodi:type="arc"
           sodipodi:start="0.27824682"
           sodipodi:ry="2.5999999"
           sodipodi:rx="2.5999999"
           sodipodi:open="true"
           sodipodi:end="2.8633458"
           sodipodi:cy="49.285858"
           sodipodi:cx="102.5"
           style="fill:none;stroke:#000000;stroke-width:0.60000002;stroke-linecap:round;stroke-linejoin:round;stroke-dasharray:none"
           d="m 105,50.000001 a 2.5999999,2.5999999 0 0 1 -2.5,1.885857 2.5999999,2.5999999 0 0 1 -2.5,-1.885857" />
        <path
           id="path1474"
           inkscape:label="arc"
           sodipodi:type="arc"
           sodipodi:start="3.4198395"
           sodipodi:ry="2.5999999"
           sodipodi:rx="2.5999999"
           sodipodi:open="true"
           sodipodi:end="6.0049385"
           sodipodi:cy="50.714142"
           sodipodi:cx="107.5"
           style="fill:none;stroke:#000000;stroke-width:0.60000002;stroke-linecap:round;stroke-linejoin:round;stroke-dasharray:none"
           d="m 105,49.999999 a 2.5999999,2.5999999 0 0 1 2.5,-1.885857 2.5999999,2.5999999 0 0 1 2.5,1.885857" />
      </g>
      <path
         id="path1478"
         inkscape:label="none"
         style="fill:none;stroke:#000000;stroke-width:0.60000002;stroke-linecap:round;stroke-linejoin:round;stroke-dasharray:none"
         d="m 116,46 h -2"
         inkscape:connector-curvature="0" />
      <path
         id="path1480"
         inkscape:label="none"
         style="fill:none;stroke:#000000;stroke-width:0.60000002;stroke-linecap:round;stroke-linejoin:round;stroke-dasharray:none"
         d="m 115,45 v 2"
         inkscape:connector-curvature="0" />
      <path
         id="path1482"
         inkscape:label="none"
         style="fill:none;stroke:#000000;stroke-width:0.60000002;stroke-linecap:round;stroke-linejoin:round;stroke-dasharray:none"
         d="m 95,45 v 2"
         inkscape:connector-curvature="0" />
    </g>
    <g
       transform="matrix(0,0.739645,0.739645,0,-382.55179,-139.62229)"
       ns0:preamble="/home/newtonis/.config/inkscape/extensions/textextLib/CircuitSymbolsLatexPreamble.tex"
       ns0:text=" $V_{gen}$"
       word-spacing="normal"
       letter-spacing="normal"
       font-size-adjust="none"
       font-stretch="normal"
       font-weight="normal"
       font-variant="normal"
       font-style="normal"
       stroke-miterlimit="10.433"
       xml:space="preserve"
       id="g1494"
       style="font-style:normal;font-variant:normal;font-weight:normal;font-stretch:normal;letter-spacing:normal;word-spacing:normal;text-anchor:start;fill:none;fill-opacity:1;fill-rule:evenodd;stroke:#000000;stroke-linecap:butt;stroke-linejoin:miter;stroke-miterlimit:10.43299961;stroke-dasharray:none;stroke-dashoffset:0;stroke-opacity:1"><path
         id="path1486"
         style="fill:#000000;stroke-width:0"
         d="m 229.7,662.89 0.04,0.07 0.05,0.06 0.04,0.07 0.04,0.05 0.05,0.06 0.04,0.05 0.05,0.05 0.04,0.04 0.04,0.04 0.04,0.04 0.04,0.03 0.05,0.03 0.04,0.03 0.04,0.03 0.04,0.02 0.04,0.02 0.04,0.02 0.04,0.02 0.04,0.01 0.03,0.02 0.04,0.01 0.04,0.01 0.04,0.01 h 0.03 l 0.04,0.01 h 0.04 l 0.07,0.01 0.07,0.01 h 0.07 c 0.12,0.01 0.13,0.18 0.13,0.19 0,0.08 -0.05,0.12 -0.13,0.12 -0.26,0 -0.55,-0.03 -0.82,-0.03 -0.33,0 -0.66,0.03 -0.98,0.03 -0.06,0 -0.19,0 -0.19,-0.19 0,-0.11 0.09,-0.12 0.16,-0.12 0.26,-0.02 0.46,-0.12 0.46,-0.33 0,-0.15 -0.15,-0.36 -0.15,-0.37 l -3.07,-4.85 -0.67,5.25 c 0,0.17 0.22,0.3 0.68,0.3 0.14,0 0.25,0 0.25,0.2 0,0.09 -0.08,0.11 -0.14,0.11 -0.4,0 -0.82,-0.03 -1.23,-0.03 -0.18,0 -0.37,0.01 -0.55,0.01 -0.18,0 -0.37,0.02 -0.54,0.02 -0.07,0 -0.19,0 -0.19,-0.19 0,-0.12 0.09,-0.12 0.25,-0.12 0.56,0 0.57,-0.09 0.6,-0.34 l 0.79,-6.13 c 0.03,-0.19 0.07,-0.22 0.19,-0.22 0.17,0 0.2,0.05 0.28,0.18 z"
         inkscape:connector-curvature="0" /><path
         id="path1488"
         style="fill:#000000;stroke-width:0"
         d="m 232.96,658.31 0.01,0.01 v 0.01 0 0.01 l 0.01,0.01 v 0.01 0.01 0 0.01 0.01 0 l 0.01,0.01 v 0 0.01 0 0.01 0 0 0.01 0 0 0.01 0 0 0 0.01 0 0 0 0 0 0 c 0,0.16 -0.12,0.22 -0.24,0.22 -0.16,0 -0.29,-0.13 -0.32,-0.26 -0.12,0.19 -0.35,0.4 -0.72,0.4 v -0.2 c 0.49,0 0.62,-0.52 0.62,-0.59 0,-0.01 0,-0.03 -0.02,-0.1 L 232,656.67 c -0.03,-0.11 -0.03,-0.12 -0.15,-0.26 -0.24,-0.29 -0.58,-0.47 -0.84,-0.47 -0.36,0 -0.53,0.29 -0.53,0.66 0,0.3 0.19,1.08 0.37,1.39 0.3,0.48 0.62,0.62 0.86,0.62 v 0.2 c -0.87,0 -1.79,-0.93 -1.79,-1.93 0,-0.72 0.49,-1.14 1.07,-1.14 0.32,0 0.62,0.16 0.87,0.38 l -0.15,-0.63 c -0.08,-0.29 -0.13,-0.48 -0.4,-0.72 -0.3,-0.25 -0.6,-0.25 -0.78,-0.25 -0.32,0 -0.41,0.02 -0.54,0.05 0.18,0.08 0.23,0.25 0.23,0.34 0,0.17 -0.14,0.26 -0.28,0.26 -0.19,0 -0.4,-0.16 -0.4,-0.42 0,-0.42 0.61,-0.43 1,-0.43 1.09,0 1.56,0.56 1.66,0.96 z"
         inkscape:connector-curvature="0" /><path
         id="path1490"
         style="fill:#000000;stroke-width:0"
         d="m 234.95,657.33 h 0.02 0.02 0.02 0.03 0.02 0.03 0.03 0.03 0.04 0.03 l 0.03,0.01 h 0.04 0.04 0.03 l 0.08,0.01 0.08,0.01 0.08,0.01 0.08,0.01 0.09,0.01 0.08,0.02 0.04,0.01 0.03,0.01 0.04,0.01 0.04,0.01 0.04,0.01 0.03,0.01 c 0.52,0.18 0.62,0.52 0.62,0.73 0,0.38 -0.39,0.61 -0.87,0.61 v -0.2 c 0.31,0 0.57,-0.15 0.57,-0.41 0,-0.68 -1.18,-0.68 -1.48,-0.68 h -0.35 c 0.29,1.01 1.07,1.09 1.26,1.09 v 0.2 c -0.84,0 -1.97,-0.64 -1.97,-1.83 0,-0.7 0.44,-1.31 1.26,-1.31 1.18,0 1.73,0.69 1.73,0.79 0,0.04 -0.06,0.12 -0.12,0.12 -0.04,0 -0.05,-0.02 -0.11,-0.07 -0.54,-0.64 -1.36,-0.64 -1.49,-0.64 -0.42,0 -0.7,0.27 -0.7,0.84 0,0.09 0,0.23 0.09,0.62 z"
         inkscape:connector-curvature="0" /><path
         id="path1492"
         style="fill:#000000;stroke-width:0"
         d="m 238.01,656.18 v -0.01 -0.01 -0.01 L 238,656.14 v -0.01 -0.01 l -0.01,-0.01 v -0.01 -0.02 l -0.01,-0.03 -0.01,-0.02 V 656.01 656 l -0.01,-0.01 v -0.01 -0.01 -0.01 l -0.01,-0.01 v -0.01 -0.01 0 -0.01 -0.01 0 -0.01 h -0.01 v 0 0 0 -0.01 c 0,-0.15 0.13,-0.22 0.24,-0.22 0.13,0 0.24,0.09 0.28,0.15 0.03,0.07 0.09,0.29 0.12,0.44 0.04,0.13 0.11,0.45 0.15,0.62 0.05,0.15 0.09,0.31 0.12,0.47 0.08,0.28 0.09,0.34 0.3,0.62 0.19,0.28 0.52,0.64 1.05,0.64 0.4,0 0.41,-0.35 0.41,-0.48 0,-0.42 -0.3,-1.19 -0.41,-1.48 -0.08,-0.2 -0.11,-0.26 -0.11,-0.38 0,-0.37 0.31,-0.6 0.67,-0.6 0.69,0 1,0.96 1,1.06 0,0.1 -0.09,0.1 -0.11,0.1 -0.1,0 -0.11,-0.05 -0.13,-0.12 -0.16,-0.56 -0.46,-0.84 -0.74,-0.84 -0.15,0 -0.18,0.09 -0.18,0.24 0,0.16 0.04,0.25 0.16,0.56 0.09,0.22 0.37,0.95 0.37,1.35 0,0.67 -0.54,0.79 -0.91,0.79 -0.58,0 -0.97,-0.36 -1.18,-0.64 -0.05,0.49 -0.46,0.64 -0.75,0.64 -0.3,0 -0.46,-0.22 -0.55,-0.38 -0.15,-0.26 -0.25,-0.65 -0.25,-0.69 0,-0.09 0.1,-0.09 0.12,-0.09 0.1,0 0.1,0.02 0.15,0.21 0.11,0.41 0.24,0.75 0.51,0.75 0.19,0 0.23,-0.15 0.23,-0.34 0,-0.13 -0.06,-0.39 -0.11,-0.57 -0.05,-0.19 -0.12,-0.48 -0.15,-0.63 z"
         inkscape:connector-curvature="0" /></g>  </g>
  <g
     transform="translate(-11.725148,-8.3758459)"
     inkscape:label="arrowI"
     id="g1576">
    <path
       sodipodi:nodetypes="cc"
       inkscape:connector-curvature="0"
       d="M 89.276312,46.970611 H 107.76212 V 68.107314"
       style="fill:none;stroke:#ff0000;stroke-width:1;stroke-linecap:round;stroke-linejoin:round;stroke-dasharray:none;marker-end:url(#arrowCurrentEnd)"
       inkscape:label="none"
       id="path1570" />
    <g
       style="font-style:normal;font-variant:normal;font-weight:normal;font-stretch:normal;letter-spacing:normal;word-spacing:normal;text-anchor:start;fill:none;fill-opacity:1;fill-rule:evenodd;stroke:#000000;stroke-width:0.60052067;stroke-linecap:butt;stroke-linejoin:miter;stroke-miterlimit:10.43299961;stroke-dasharray:none;stroke-dashoffset:0;stroke-opacity:1"
       id="g1574"
       xml:space="preserve"
       stroke-miterlimit="10.433"
       font-style="normal"
       font-variant="normal"
       font-weight="normal"
       font-stretch="normal"
       font-size-adjust="none"
       letter-spacing="normal"
       word-spacing="normal"
       ns0:text=" $I$"
       ns0:preamble="/home/newtonis/.config/inkscape/extensions/textextLib/CircuitSymbolsLatexPreamble.tex"
       transform="matrix(1.2316729,0,0,-1.2316728,-178.41039,869.0287)"><path
         inkscape:connector-curvature="0"
         d="m 227.16,663.26 0.01,0.03 0.01,0.03 0.01,0.03 v 0.03 l 0.01,0.02 0.01,0.03 0.01,0.02 0.01,0.03 0.01,0.02 0.01,0.02 0.02,0.02 0.01,0.02 0.02,0.01 0.01,0.02 0.02,0.01 0.02,0.02 0.03,0.01 0.02,0.01 0.03,0.01 0.03,0.01 0.03,0.01 h 0.02 l 0.02,0.01 h 0.02 0.02 l 0.02,0.01 h 0.02 0.02 l 0.02,0.01 h 0.03 0.02 0.03 0.02 l 0.03,0.01 h 0.03 0.03 0.03 0.03 0.03 0.03 0.04 0.03 0.04 c 0.24,0 0.32,0 0.32,0.19 0,0.12 -0.11,0.12 -0.15,0.12 -0.29,0 -1.03,-0.03 -1.32,-0.03 -0.3,0 -1.02,0.03 -1.32,0.03 -0.07,0 -0.2,0 -0.2,-0.2 0,-0.11 0.09,-0.11 0.28,-0.11 0.42,0 0.68,0 0.68,-0.19 0,-0.05 0,-0.07 -0.02,-0.16 L 225,658.01 c -0.09,-0.37 -0.12,-0.47 -0.91,-0.47 -0.23,0 -0.32,0 -0.32,-0.2 0,-0.11 0.12,-0.11 0.15,-0.11 0.29,0 1.02,0.04 1.31,0.04 0.3,0 1.03,-0.04 1.33,-0.04 0.08,0 0.2,0 0.2,0.19 0,0.12 -0.08,0.12 -0.3,0.12 -0.18,0 -0.23,0 -0.42,0.02 -0.22,0.02 -0.25,0.06 -0.25,0.17 0,0.08 0.01,0.16 0.03,0.23 z"
         style="fill:#ff0000;stroke-width:0"
         id="path1572" /></g>  </g>
  <g
     id="g1680"
     inkscape:label="arrowV"
     transform="rotate(-90.231919,115.05194,26.73454)">
    <path
       id="path1672"
       inkscape:label="arc"
       sodipodi:type="arc"
       sodipodi:start="1.2309594"
       sodipodi:ry="30"
       sodipodi:rx="30"
       sodipodi:end="1.9106332"
       sodipodi:cy="1.7157288"
       sodipodi:cx="90"
       style="fill:none;stroke:#217b21;stroke-width:1;stroke-linecap:round;stroke-linejoin:round;stroke-dasharray:none;marker-start:url(#arrowVoltageStart)"
       d="M 100,30 A 30,30 0 0 1 80.000001,30"
       sodipodi:open="true" />
    <g
       transform="matrix(0,0.739645,0.739645,0,-397.75547,-130.04387)"
       ns0:preamble="/home/newtonis/.config/inkscape/extensions/textextLib/CircuitSymbolsLatexPreamble.tex"
       ns0:text=" $V_R$"
       word-spacing="normal"
       letter-spacing="normal"
       font-size-adjust="none"
       font-stretch="normal"
       font-weight="normal"
       font-variant="normal"
       font-style="normal"
       stroke-miterlimit="10.433"
       xml:space="preserve"
       id="g1678"
       style="font-style:normal;font-variant:normal;font-weight:normal;font-stretch:normal;letter-spacing:normal;word-spacing:normal;text-anchor:start;fill:none;fill-opacity:1;fill-rule:evenodd;stroke:#000000;stroke-linecap:butt;stroke-linejoin:miter;stroke-miterlimit:10.43299961;stroke-dasharray:none;stroke-dashoffset:0;stroke-opacity:1"><path
         id="path1674"
         style="fill:#217b21;stroke-width:0"
         d="m 229.7,662.89 0.04,0.07 0.05,0.06 0.04,0.07 0.04,0.05 0.05,0.06 0.04,0.05 0.05,0.05 0.04,0.04 0.04,0.04 0.04,0.04 0.04,0.03 0.05,0.03 0.04,0.03 0.04,0.03 0.04,0.02 0.04,0.02 0.04,0.02 0.04,0.02 0.04,0.01 0.03,0.02 0.04,0.01 0.04,0.01 0.04,0.01 h 0.03 l 0.04,0.01 h 0.04 l 0.07,0.01 0.07,0.01 h 0.07 c 0.12,0.01 0.13,0.18 0.13,0.19 0,0.08 -0.05,0.12 -0.13,0.12 -0.26,0 -0.55,-0.03 -0.82,-0.03 -0.33,0 -0.66,0.03 -0.98,0.03 -0.06,0 -0.19,0 -0.19,-0.19 0,-0.11 0.09,-0.12 0.16,-0.12 0.26,-0.02 0.46,-0.12 0.46,-0.33 0,-0.15 -0.15,-0.36 -0.15,-0.37 l -3.07,-4.85 -0.67,5.25 c 0,0.17 0.22,0.3 0.68,0.3 0.14,0 0.25,0 0.25,0.2 0,0.09 -0.08,0.11 -0.14,0.11 -0.4,0 -0.82,-0.03 -1.23,-0.03 -0.18,0 -0.37,0.01 -0.55,0.01 -0.18,0 -0.37,0.02 -0.54,0.02 -0.07,0 -0.19,0 -0.19,-0.19 0,-0.12 0.09,-0.12 0.25,-0.12 0.56,0 0.57,-0.09 0.6,-0.34 l 0.79,-6.13 c 0.03,-0.19 0.07,-0.22 0.19,-0.22 0.17,0 0.2,0.05 0.28,0.18 z"
         inkscape:connector-curvature="0" /><path
         id="path1676"
         style="fill:#217b21;stroke-width:0"
         d="m 233.4,658.1 0.07,0.02 0.08,0.03 0.08,0.02 0.07,0.02 0.08,0.03 0.07,0.03 0.07,0.02 0.07,0.04 0.07,0.03 0.07,0.03 0.07,0.04 0.06,0.03 0.06,0.04 0.06,0.04 0.06,0.04 0.06,0.04 0.05,0.05 0.05,0.04 0.05,0.05 0.04,0.04 0.04,0.05 0.04,0.05 0.04,0.05 0.03,0.05 0.03,0.05 0.03,0.05 0.02,0.06 0.02,0.05 0.01,0.06 0.01,0.05 0.01,0.06 v 0.06 c 0,0.6 -0.71,1.07 -1.73,1.07 h -2.14 c -0.14,0 -0.23,0 -0.23,-0.15 0,-0.1 0.09,-0.1 0.23,-0.1 0,0 0.14,0 0.26,-0.01 0.15,-0.02 0.16,-0.03 0.16,-0.1 0,-0.02 0,-0.05 -0.03,-0.15 l -0.92,-3.7 c -0.06,-0.23 -0.07,-0.29 -0.62,-0.29 -0.12,0 -0.21,0 -0.21,-0.15 0,-0.06 0.05,-0.1 0.11,-0.1 0.14,0 0.3,0.02 0.44,0.02 0.13,0 0.33,0.01 0.46,0.01 0.14,0 0.3,-0.01 0.45,-0.01 0.14,0 0.32,-0.02 0.46,-0.02 0.04,0 0.15,0 0.15,0.15 0,0.1 -0.07,0.1 -0.23,0.1 -0.11,0 -0.14,0 -0.27,0.02 -0.15,0.02 -0.15,0.03 -0.15,0.1 0,0.01 0,0.05 0.03,0.15 l 0.44,1.76 h 0.95 l 0.01,0.2 h -0.91 l 0.45,1.78 c 0.05,0.2 0.07,0.22 0.22,0.24 h 0.45 c 0.65,0 1.45,0 1.45,-0.72 0,-0.28 -0.13,-0.72 -0.46,-0.97 -0.29,-0.22 -0.72,-0.33 -1.2,-0.33 l -0.01,-0.2 c 0.6,0 0.86,-0.3 0.86,-0.62 0,-0.09 -0.06,-0.33 -0.1,-0.49 -0.08,-0.32 -0.11,-0.43 -0.11,-0.54 0,-0.55 0.51,-0.77 1.03,-0.77 0.64,0 0.92,0.68 0.92,0.81 0,0.02 -0.01,0.1 -0.12,0.1 -0.09,0 -0.1,-0.05 -0.13,-0.12 -0.09,-0.31 -0.35,-0.59 -0.64,-0.59 -0.19,0 -0.32,0.07 -0.32,0.45 0,0.17 0.04,0.53 0.07,0.72 0.03,0.19 0.03,0.26 0.03,0.33 0,0.08 0,0.3 -0.2,0.51 -0.13,0.15 -0.32,0.24 -0.47,0.29 z"
         inkscape:connector-curvature="0" /></g>  </g>
</svg>
